# xmcd
#
# Track frame offsets:
#	150
#	18485
#	32184
#	47163
#	65169
#	87491
#	104080
#	121280
#	135910
#	152356
#	170371
#	184325
#	194249
#	204980
#	219306
#	234275
#	247181
#	260473
#	276468
#	293645
#	298694
#
# Disc length: 4125 seconds
#
# Revision: 8
# Processed by: cddbd v1.5.2PL0 Copyright (c) Steve Scherf et al.
# Submitted via: Jack! The Knife 20 Magnifico
#
DISCID=47101b15
DTITLE=Bee Gees - The Ultimate Bee Gees [CD 2)
DYEAR=2009
DGENRE=Disco
TTITLE0=How Deep Is Your Love
TTITLE1=To Love Somebody
TTITLE2=Words
TTITLE3=How Can You Mend A Broken Heart
TTITLE4=Too Much Heaven
TTITLE5=Emotion
TTITLE6=Lonely Days
TTITLE7=Run To Me
TTITLE8=Love So Right
TTITLE9=For Whom The Bell Tolls
TTITLE10=I've Gotta Get A Message To You
TTITLE11=New York Mining Disaster 1941
TTITLE12=Massachusetts
TTITLE13=I Started A Joke
TTITLE14=World
TTITLE15=First Of May
TTITLE16=Holiday
TTITLE17=Don't Forget To Remember
TTITLE18=Island In The Stream (Live)
TTITLE19=Heartbreaker (Live)
TTITLE20=Guilty (Live)
EXTD=Bee Gees
EXTT0=B. Gibb, R. Gibb, M. Gibb
EXTT1=B. Gibb, R. Gibb
EXTT2=B. Gibb, R. Gibb, M. Gibb
EXTT3=B. Gibb, R. Gibb, M. Gibb
EXTT4=B. Gibb, R. Gibb, M. Gibb
EXTT5=B. Gibb, R. Gibb
EXTT6=B. Gibb, R. Gibb, M. Gibb
EXTT7=B. Gibb, R. Gibb, M. Gibb
EXTT8=B. Gibb, R. Gibb, M. Gibb
EXTT9=B. Gibb, R. Gibb, M. Gibb
EXTT10=B. Gibb, R. Gibb, M. Gibb
EXTT11=B. Gibb, R. Gibb
EXTT12=B. Gibb, R. Gibb, M. Gibb
EXTT13=B. Gibb, R. Gibb, M. Gibb
EXTT14=B. Gibb, R. Gibb, M. Gibb
EXTT15=B. Gibb, R. Gibb, M. Gibb
EXTT16=B. Gibb, R. Gibb
EXTT17=B. Gibb, M. Gibb
EXTT18=B. Gibb, R. Gibb, M. Gibb
EXTT19=B. Gibb, R. Gibb, M. Gibb
EXTT20=B. Gibb, R. Gibb, M. Gibb
PLAYORDER=
